<svg xmlns="http://www.w3.org/2000/svg" xmlns:xlink="http://www.w3.org/1999/xlink" viewBox="0 0 1921.73 1110.93"><defs><style>.cls-1{stroke:#000;fill:url(#radial-gradient);}.cls-1,.cls-4{stroke-miterlimit:10;}.cls-2{mask:url(#mask);}.cls-3{opacity:0.99;}.cls-4{fill:none;stroke:#fff;}</style><radialGradient id="radial-gradient" cx="1051.65" cy="465.18" r="692.4" gradientTransform="translate(-371.34 81.74) scale(1.28 1.01)" gradientUnits="userSpaceOnUse"><stop offset="0.27" stop-color="#fff"/><stop offset="0.47" stop-color="#d6d6d6"/><stop offset="0.85" stop-color="gray"/><stop offset="0.88" stop-color="#7d7d7d"/><stop offset="0.91" stop-color="#727272"/><stop offset="0.93" stop-color="#616161"/><stop offset="0.95" stop-color="#494949"/><stop offset="0.97" stop-color="#292929"/><stop offset="0.99" stop-color="#030303"/><stop offset="0.99"/></radialGradient><mask id="mask" x="-118.12" y="-149.5" width="2185.99" height="1403" maskUnits="userSpaceOnUse"><rect class="cls-1" x="-117.62" y="-149" width="2184.99" height="1402"/></mask></defs><g id="Layer_2" data-name="Layer 2"><g id="Layer_1-2" data-name="Layer 1"><g class="cls-2"><g class="cls-3"><polygon class="cls-4" points="1814.11 185.86 1707.35 0.94 1920.87 0.94 1814.11 185.86"/><polygon class="cls-4" points="107.63 185.41 0.87 0.5 214.39 0.5 107.63 185.41"/><polygon class="cls-4" points="320.96 185.41 214.2 0.5 427.72 0.5 320.96 185.41"/><polygon class="cls-4" points="534.3 185.41 427.54 0.5 641.06 0.5 534.3 185.41"/><polygon class="cls-4" points="747.63 185.41 640.87 0.5 854.39 0.5 747.63 185.41"/><polygon class="cls-4" points="960.97 185.41 854.21 0.5 1067.73 0.5 960.97 185.41"/><polygon class="cls-4" points="1174.3 185.41 1067.54 0.5 1281.06 0.5 1174.3 185.41"/><polygon class="cls-4" points="1387.64 185.41 1280.88 0.5 1494.4 0.5 1387.64 185.41"/><polygon class="cls-4" points="1814.11 185.86 1707.35 370.77 1920.87 370.77 1814.11 185.86"/><polygon class="cls-4" points="107.63 185.41 0.87 370.33 214.39 370.33 107.63 185.41"/><polygon class="cls-4" points="320.96 185.41 214.2 370.33 427.72 370.33 320.96 185.41"/><polygon class="cls-4" points="534.3 185.41 427.54 370.33 641.06 370.33 534.3 185.41"/><polygon class="cls-4" points="747.63 185.41 640.87 370.33 854.39 370.33 747.63 185.41"/><polygon class="cls-4" points="960.97 185.41 854.21 370.33 1067.73 370.33 960.97 185.41"/><polygon class="cls-4" points="1174.3 185.41 1067.54 370.33 1281.06 370.33 1174.3 185.41"/><polygon class="cls-4" points="1387.64 185.41 1280.88 370.33 1494.4 370.33 1387.64 185.41"/><polygon class="cls-4" points="1814.11 555.69 1707.35 370.77 1920.87 370.77 1814.11 555.69"/><polygon class="cls-4" points="107.63 555.24 0.87 370.33 214.39 370.33 107.63 555.24"/><polygon class="cls-4" points="320.96 555.24 214.2 370.33 427.72 370.33 320.96 555.24"/><polygon class="cls-4" points="534.3 555.24 427.54 370.33 641.06 370.33 534.3 555.24"/><polygon class="cls-4" points="747.63 555.24 640.87 370.33 854.39 370.33 747.63 555.24"/><polygon class="cls-4" points="960.97 555.24 854.21 370.33 1067.73 370.33 960.97 555.24"/><polygon class="cls-4" points="1174.3 555.24 1067.54 370.33 1281.06 370.33 1174.3 555.24"/><polygon class="cls-4" points="1387.64 555.24 1280.88 370.33 1494.4 370.33 1387.64 555.24"/><polygon class="cls-4" points="1814.11 925.51 1707.35 740.6 1920.87 740.6 1814.11 925.51"/><polygon class="cls-4" points="107.63 925.07 0.87 740.16 214.39 740.16 107.63 925.07"/><polygon class="cls-4" points="320.96 925.07 214.2 740.16 427.72 740.16 320.96 925.07"/><polygon class="cls-4" points="534.3 925.07 427.54 740.16 641.06 740.16 534.3 925.07"/><polygon class="cls-4" points="747.63 925.07 640.87 740.16 854.39 740.16 747.63 925.07"/><polygon class="cls-4" points="960.97 925.07 854.21 740.16 1067.73 740.16 960.97 925.07"/><polygon class="cls-4" points="1174.3 925.07 1067.54 740.16 1281.06 740.16 1174.3 925.07"/><polygon class="cls-4" points="1387.64 925.07 1280.88 740.16 1494.4 740.16 1387.64 925.07"/><polygon class="cls-4" points="1814.11 555.69 1707.35 740.6 1920.87 740.6 1814.11 555.69"/><polygon class="cls-4" points="107.63 555.24 0.87 740.16 214.39 740.16 107.63 555.24"/><polygon class="cls-4" points="320.96 555.24 214.2 740.16 427.72 740.16 320.96 555.24"/><polygon class="cls-4" points="534.3 555.24 427.54 740.16 641.06 740.16 534.3 555.24"/><polygon class="cls-4" points="747.63 555.24 640.87 740.16 854.39 740.16 747.63 555.24"/><polygon class="cls-4" points="960.97 555.24 854.21 740.16 1067.73 740.16 960.97 555.24"/><polygon class="cls-4" points="1174.3 555.24 1067.54 740.16 1281.06 740.16 1174.3 555.24"/><polygon class="cls-4" points="1387.64 555.24 1280.88 740.16 1494.4 740.16 1387.64 555.24"/><polygon class="cls-4" points="1814.11 925.51 1707.35 1110.43 1920.87 1110.43 1814.11 925.51"/><polygon class="cls-4" points="1600.74 185.86 1493.98 0.94 1707.5 0.94 1600.74 185.86"/><polygon class="cls-4" points="1600.74 185.86 1493.98 370.77 1707.5 370.77 1600.74 185.86"/><polygon class="cls-4" points="1600.74 555.69 1493.98 370.77 1707.5 370.77 1600.74 555.69"/><polygon class="cls-4" points="1600.74 925.51 1493.98 740.6 1707.5 740.6 1600.74 925.51"/><polygon class="cls-4" points="1600.74 555.69 1493.98 740.6 1707.5 740.6 1600.74 555.69"/><polygon class="cls-4" points="1600.74 925.51 1493.98 1110.43 1707.5 1110.43 1600.74 925.51"/><polygon class="cls-4" points="107.63 925.07 0.87 1109.98 214.39 1109.98 107.63 925.07"/><polygon class="cls-4" points="320.96 925.07 214.2 1109.98 427.72 1109.98 320.96 925.07"/><polygon class="cls-4" points="534.3 925.07 427.54 1109.98 641.06 1109.98 534.3 925.07"/><polygon class="cls-4" points="747.63 925.07 640.87 1109.98 854.39 1109.98 747.63 925.07"/><polygon class="cls-4" points="960.97 925.07 854.21 1109.98 1067.73 1109.98 960.97 925.07"/><polygon class="cls-4" points="1174.3 925.07 1067.54 1109.98 1281.06 1109.98 1174.3 925.07"/><polygon class="cls-4" points="1387.64 925.07 1280.88 1109.98 1494.4 1109.98 1387.64 925.07"/><line class="cls-4" x1="0.87" y1="185.41" x2="1914.38" y2="185.41"/><line class="cls-4" x1="0.87" y1="555.41" x2="1914.38" y2="555.41"/><line class="cls-4" x1="0.87" y1="925.41" x2="1914.38" y2="925.41"/></g></g></g></g></svg>