<svg xmlns="http://www.w3.org/2000/svg" xmlns:xlink="http://www.w3.org/1999/xlink" viewBox="0 0 1083.07 1499.73"><defs><style>.cls-1{stroke:#000;fill:url(#radial-gradient);}.cls-1,.cls-4{stroke-miterlimit:10;}.cls-2{mask:url(#mask);}.cls-3{opacity:0.99;}.cls-4{fill:none;stroke:#fff;}</style><radialGradient id="radial-gradient" cx="-4060.8" cy="534.49" r="860.6" gradientTransform="translate(2609.87 231.14) scale(0.51 0.92)" gradientUnits="userSpaceOnUse"><stop offset="0.27" stop-color="#fff"/><stop offset="0.44" stop-color="#d6d6d6"/><stop offset="0.74" stop-color="#888"/><stop offset="0.85" stop-color="gray"/><stop offset="0.88" stop-color="#7d7d7d"/><stop offset="0.91" stop-color="#727272"/><stop offset="0.93" stop-color="#616161"/><stop offset="0.95" stop-color="#494949"/><stop offset="0.97" stop-color="#292929"/><stop offset="0.99" stop-color="#030303"/><stop offset="0.99"/></radialGradient><mask id="mask" x="0" y="0" width="1083.16" height="1499.73" maskUnits="userSpaceOnUse"><rect class="cls-1" x="2.66" y="1.08" width="1080" height="1439.65"/></mask></defs><g id="Layer_2" data-name="Layer 2"><g id="Layer_1-2" data-name="Layer 1"><g class="cls-2"><g class="cls-3"><polygon class="cls-4" points="757.78 1311.89 649.62 1124.55 865.94 1124.55 757.78 1311.89"/><polygon class="cls-4" points="109.03 187.84 0.87 0.5 217.19 0.5 109.03 187.84"/><polygon class="cls-4" points="325.16 187.84 217 0.5 433.32 0.5 325.16 187.84"/><polygon class="cls-4" points="541.29 187.84 433.13 0.5 649.45 0.5 541.29 187.84"/><polygon class="cls-4" points="757.42 187.84 649.26 0.5 865.58 0.5 757.42 187.84"/><polygon class="cls-4" points="109.59 1311.44 1.43 1124.1 217.75 1124.1 109.59 1311.44"/><polygon class="cls-4" points="325.72 1311.44 217.56 1124.1 433.88 1124.1 325.72 1311.44"/><polygon class="cls-4" points="757.78 1311.89 649.62 1499.23 865.94 1499.23 757.78 1311.89"/><polygon class="cls-4" points="109.03 187.84 0.87 375.18 217.19 375.18 109.03 187.84"/><polygon class="cls-4" points="325.16 187.84 217 375.18 433.32 375.18 325.16 187.84"/><polygon class="cls-4" points="541.29 187.84 433.13 375.18 649.45 375.18 541.29 187.84"/><polygon class="cls-4" points="757.42 187.84 649.26 375.18 865.58 375.18 757.42 187.84"/><polygon class="cls-4" points="109.59 1311.44 1.43 1498.78 217.75 1498.78 109.59 1311.44"/><polygon class="cls-4" points="325.72 1311.44 217.56 1498.78 433.88 1498.78 325.72 1311.44"/><polygon class="cls-4" points="109.03 562.51 0.87 375.18 217.19 375.18 109.03 562.51"/><polygon class="cls-4" points="325.16 562.51 217 375.18 433.32 375.18 325.16 562.51"/><polygon class="cls-4" points="541.29 562.51 433.13 375.18 649.45 375.18 541.29 562.51"/><polygon class="cls-4" points="757.42 562.51 649.26 375.18 865.58 375.18 757.42 562.51"/><polygon class="cls-4" points="109.03 937.19 0.87 749.85 217.19 749.85 109.03 937.19"/><polygon class="cls-4" points="325.16 937.19 217 749.85 433.32 749.85 325.16 937.19"/><polygon class="cls-4" points="541.29 937.19 433.13 749.85 649.45 749.85 541.29 937.19"/><polygon class="cls-4" points="757.42 937.19 649.26 749.85 865.58 749.85 757.42 937.19"/><polygon class="cls-4" points="109.03 562.51 0.87 749.85 217.19 749.85 109.03 562.51"/><polygon class="cls-4" points="325.16 562.51 217 749.85 433.32 749.85 325.16 562.51"/><polygon class="cls-4" points="541.29 562.51 433.13 749.85 649.45 749.85 541.29 562.51"/><polygon class="cls-4" points="757.42 562.51 649.26 749.85 865.58 749.85 757.42 562.51"/><polygon class="cls-4" points="541.62 1311.89 433.46 1124.55 649.78 1124.55 541.62 1311.89"/><polygon class="cls-4" points="541.62 1311.89 433.46 1499.23 649.78 1499.23 541.62 1311.89"/><polygon class="cls-4" points="109.03 937.19 0.87 1124.53 217.19 1124.53 109.03 937.19"/><polygon class="cls-4" points="325.16 937.19 217 1124.53 433.32 1124.53 325.16 937.19"/><polygon class="cls-4" points="541.29 937.19 433.13 1124.53 649.45 1124.53 541.29 937.19"/><polygon class="cls-4" points="757.42 937.19 649.26 1124.53 865.58 1124.53 757.42 937.19"/><polygon class="cls-4" points="974.05 1311.89 865.89 1124.55 1082.21 1124.55 974.05 1311.89"/><polygon class="cls-4" points="973.69 187.84 865.53 0.5 1081.85 0.5 973.69 187.84"/><polygon class="cls-4" points="974.05 1311.89 865.89 1499.23 1082.21 1499.23 974.05 1311.89"/><polygon class="cls-4" points="973.69 187.84 865.53 375.18 1081.85 375.18 973.69 187.84"/><polygon class="cls-4" points="973.69 562.51 865.53 375.18 1081.85 375.18 973.69 562.51"/><polygon class="cls-4" points="973.69 937.19 865.53 749.85 1081.85 749.85 973.69 937.19"/><polygon class="cls-4" points="973.69 562.51 865.53 749.85 1081.85 749.85 973.69 562.51"/><polygon class="cls-4" points="973.69 937.19 865.53 1124.53 1081.85 1124.53 973.69 937.19"/><line class="cls-4" x1="0.87" y1="187.84" x2="1081.33" y2="187.84"/><line class="cls-4" x1="0.87" y1="562.69" x2="1081.33" y2="562.69"/><line class="cls-4" x1="0.87" y1="937.54" x2="1081.33" y2="937.54"/><line class="cls-4" x1="0.87" y1="1311.12" x2="1081.33" y2="1311.12"/></g></g></g></g></svg>