<svg id="Layer_1" data-name="Layer 1" xmlns="http://www.w3.org/2000/svg" xmlns:xlink="http://www.w3.org/1999/xlink" viewBox="0 0 640 1080"><defs><style>.cls-1{stroke:#000;fill:url(#radial-gradient);}.cls-1,.cls-4{stroke-miterlimit:10;}.cls-2{mask:url(#mask);}.cls-3{opacity:0.99;}.cls-4{fill:none;stroke:#fff;}</style><radialGradient id="radial-gradient" cx="298" cy="464.7" r="692.4" gradientTransform="translate(210.04 187.71) scale(0.38 0.76)" gradientUnits="userSpaceOnUse"><stop offset="0.27" stop-color="#fff"/><stop offset="0.44" stop-color="#d6d6d6"/><stop offset="0.74" stop-color="#888"/><stop offset="0.85" stop-color="gray"/><stop offset="0.88" stop-color="#7d7d7d"/><stop offset="0.91" stop-color="#727272"/><stop offset="0.93" stop-color="#616161"/><stop offset="0.95" stop-color="#494949"/><stop offset="0.97" stop-color="#292929"/><stop offset="0.99" stop-color="#030303"/><stop offset="0.99"/></radialGradient><mask id="mask" x="-28.87" y="-0.46" width="697.73" height="1206.81" maskUnits="userSpaceOnUse"><rect class="cls-1" x="-0.5" y="0.5" width="647" height="1079"/></mask></defs><g class="cls-2"><g class="cls-3"><polygon class="cls-4" points="580.98 1055.12 493.96 904.4 668 904.4 580.98 1055.12"/><polygon class="cls-4" points="59.02 150.76 -28 0.04 146.04 0.04 59.02 150.76"/><polygon class="cls-4" points="232.91 150.76 145.89 0.04 319.93 0.04 232.91 150.76"/><polygon class="cls-4" points="406.8 150.76 319.78 0.04 493.82 0.04 406.8 150.76"/><polygon class="cls-4" points="580.69 150.76 493.67 0.04 667.71 0.04 580.69 150.76"/><polygon class="cls-4" points="59.47 1054.76 -27.55 904.04 146.49 904.04 59.47 1054.76"/><polygon class="cls-4" points="233.36 1054.76 146.34 904.04 320.38 904.04 233.36 1054.76"/><polygon class="cls-4" points="580.98 1055.12 493.96 1205.85 668 1205.85 580.98 1055.12"/><polygon class="cls-4" points="59.02 150.76 -28 301.48 146.04 301.48 59.02 150.76"/><polygon class="cls-4" points="232.91 150.76 145.89 301.48 319.93 301.48 232.91 150.76"/><polygon class="cls-4" points="406.8 150.76 319.78 301.48 493.82 301.48 406.8 150.76"/><polygon class="cls-4" points="580.69 150.76 493.67 301.48 667.71 301.48 580.69 150.76"/><polygon class="cls-4" points="59.47 1054.76 -27.55 1205.48 146.49 1205.48 59.47 1054.76"/><polygon class="cls-4" points="233.36 1054.76 146.34 1205.48 320.38 1205.48 233.36 1054.76"/><polygon class="cls-4" points="59.02 452.21 -28 301.48 146.04 301.48 59.02 452.21"/><polygon class="cls-4" points="232.91 452.21 145.89 301.48 319.93 301.48 232.91 452.21"/><polygon class="cls-4" points="406.8 452.21 319.78 301.48 493.82 301.48 406.8 452.21"/><polygon class="cls-4" points="580.69 452.21 493.67 301.48 667.71 301.48 580.69 452.21"/><polygon class="cls-4" points="59.02 753.66 -28 602.93 146.04 602.93 59.02 753.66"/><polygon class="cls-4" points="232.91 753.66 145.89 602.93 319.93 602.93 232.91 753.66"/><polygon class="cls-4" points="406.8 753.66 319.78 602.93 493.82 602.93 406.8 753.66"/><polygon class="cls-4" points="580.69 753.66 493.67 602.93 667.71 602.93 580.69 753.66"/><polygon class="cls-4" points="59.02 452.21 -28 602.93 146.04 602.93 59.02 452.21"/><polygon class="cls-4" points="232.91 452.21 145.89 602.93 319.93 602.93 232.91 452.21"/><polygon class="cls-4" points="406.8 452.21 319.78 602.93 493.82 602.93 406.8 452.21"/><polygon class="cls-4" points="580.69 452.21 493.67 602.93 667.71 602.93 580.69 452.21"/><polygon class="cls-4" points="407.07 1055.12 320.05 904.4 494.09 904.4 407.07 1055.12"/><polygon class="cls-4" points="407.07 1055.12 320.05 1205.85 494.09 1205.85 407.07 1055.12"/><polygon class="cls-4" points="59.02 753.66 -28 904.38 146.04 904.38 59.02 753.66"/><polygon class="cls-4" points="232.91 753.66 145.89 904.38 319.93 904.38 232.91 753.66"/><polygon class="cls-4" points="406.8 753.66 319.78 904.38 493.82 904.38 406.8 753.66"/><polygon class="cls-4" points="580.69 753.66 493.67 904.38 667.71 904.38 580.69 753.66"/><line class="cls-4" x1="-28" y1="150.76" x2="668" y2="150.76"/><line class="cls-4" x1="-28" y1="452.35" x2="668" y2="452.35"/><line class="cls-4" x1="-28" y1="753.94" x2="668" y2="753.94"/><line class="cls-4" x1="-28" y1="1054.5" x2="668" y2="1054.5"/></g></g></svg>