<svg id="icon_action_favorite_24px" data-name="icon/action/favorite_24px" xmlns="http://www.w3.org/2000/svg" width="24" height="24" viewBox="0 0 24 24">
  <rect id="Boundary" width="24" height="24" fill="none"/>
  <g id="_Color" data-name=" ↳Color" transform="translate(2 3)" fill="none" stroke-miterlimit="10">
    <path d="M10,18,8.55,16.705C3.4,12.124,0,9.1,0,5.4A5.4,5.4,0,0,1,5.5,0,6.037,6.037,0,0,1,10,2.05,6.037,6.037,0,0,1,14.5,0,5.4,5.4,0,0,1,20,5.4c0,3.708-3.4,6.729-8.55,11.32Z" stroke="none"/>
    <path d="M 10.00504779815674 15.32316303253174 L 10.1586799621582 15.1868200302124 C 14.88055038452148 10.97774028778076 18 8.197059631347656 18 5.395100116729736 C 18 4.475389957427979 17.64645004272461 3.622080087661743 17.00447082519531 2.992340087890625 C 16.35210037231445 2.352420091629028 15.46267032623291 2 14.5 2 C 13.36789989471436 2 12.2502498626709 2.508879899978638 11.51029014587402 3.361249923706055 L 10 5.100979804992676 L 8.489709854125977 3.361249923706055 C 7.749750137329102 2.508879899978638 6.632100105285645 2 5.5 2 C 4.537330150604248 2 3.647900104522705 2.352420091629028 2.995529890060425 2.992340087890625 C 2.353549957275391 3.622080087661743 2 4.475389957427979 2 5.395100116729736 C 2 8.202230453491211 5.129479885101318 10.98589992523193 9.86653995513916 15.19952011108398 L 10.00504779815674 15.32316303253174 M 10 18 L 8.550000190734863 16.70517921447754 C 3.400000095367432 12.1242504119873 0 9.102999687194824 0 5.395100116729736 C 0 2.373840093612671 2.420000076293945 0 5.5 0 C 7.239999771118164 0 8.909999847412109 0.7945500016212463 10 2.050139904022217 C 11.09000015258789 0.7945500016212463 12.76000022888184 0 14.5 0 C 17.57999992370605 0 20 2.373840093612671 20 5.395100116729736 C 20 9.102999687194824 16.60000038146973 12.1242504119873 11.44999980926514 16.71499061584473 L 10 18 Z" stroke="none" fill="#fff"/>
  </g>
</svg>
