<svg id="icon_action_settings_24px" data-name="icon/action/settings_24px" xmlns="http://www.w3.org/2000/svg" width="24" height="24" viewBox="0 0 24 24">
  <rect id="Boundary" width="24" height="24" fill="none"/>
  <g id="_Color" data-name=" ↳Color" transform="translate(3 3)" fill="none" stroke-miterlimit="10">
    <path d="M10.851,18h-3.7a.466.466,0,0,1-.463-.382l-.347-2.385a6.8,6.8,0,0,1-1.562-.878l-2.3.9a.519.519,0,0,1-.16.025.459.459,0,0,1-.407-.228L.055,11.937a.456.456,0,0,1,.116-.574L2.126,9.878A5.546,5.546,0,0,1,2.057,9a5.446,5.446,0,0,1,.081-.878L.182,6.638a.428.428,0,0,1-.115-.574L1.918,2.947a.465.465,0,0,1,.567-.2l2.3.9A7.028,7.028,0,0,1,6.35,2.768L6.7.382A.447.447,0,0,1,7.148,0h3.7a.459.459,0,0,1,.463.382l.347,2.385a6.836,6.836,0,0,1,1.562.878l2.3-.9a.519.519,0,0,1,.16-.025.459.459,0,0,1,.407.228l1.852,3.117a.456.456,0,0,1-.116.574L15.873,8.123A5.453,5.453,0,0,1,15.942,9a7.14,7.14,0,0,1-.058.878l1.933,1.485a.428.428,0,0,1,.115.574l-1.851,3.116a.465.465,0,0,1-.567.2l-2.3-.9a6.962,6.962,0,0,1-1.562.878L11.3,17.618A.435.435,0,0,1,10.851,18ZM9,5.625A3.428,3.428,0,0,0,5.528,9a3.473,3.473,0,0,0,6.943,0A3.428,3.428,0,0,0,9,5.625Z" stroke="none"/>
    <path d="M 10.38140106201172 17 L 10.74298286437988 14.51544952392578 L 11.28144264221191 14.30253028869629 C 11.73331260681152 14.12384033203125 12.18297290802002 13.87065982818604 12.61792278289795 13.55002021789551 L 13.06177234649658 13.22280979156494 L 15.45055103302002 14.15653228759766 L 16.81727981567383 11.85591793060303 L 14.82193279266357 10.32277011871338 L 14.89179229736328 9.755669593811035 C 14.92587280273438 9.479089736938477 14.94243240356445 9.232040405273438 14.94243240356445 9.000419616699219 C 14.94243240356445 8.75352954864502 14.92349243164062 8.512639999389648 14.88614273071289 8.284429550170898 L 14.78894233703613 7.690539836883545 L 16.82769393920898 6.142107963562012 L 15.46189212799072 3.843506813049316 L 13.07235240936279 4.777870178222656 L 12.6279125213623 4.448379993438721 C 12.19643211364746 4.128509998321533 11.75942230224609 3.882669925689697 11.29189300537109 3.696799993515015 L 10.75496292114258 3.48334002494812 L 10.3935489654541 1 L 7.617836475372314 1 L 7.256372451782227 3.483690023422241 L 6.718992710113525 3.697000026702881 C 6.266592502593994 3.876569986343384 5.81621265411377 4.130139827728271 5.380392551422119 4.450660228729248 L 4.936772346496582 4.776909828186035 L 2.548734903335571 3.84348726272583 L 1.183336734771729 6.142490863800049 L 3.221612453460693 7.690559864044189 L 3.124372482299805 8.284480094909668 C 3.07890248298645 8.562199592590332 3.05680251121521 8.796380043029785 3.05680251121521 9.000419616699219 C 3.05680251121521 9.243200302124023 3.076292514801025 9.49092960357666 3.11317253112793 9.716830253601074 L 3.21007251739502 10.31048965454102 L 1.171593189239502 11.85871124267578 L 2.537292957305908 14.15651607513428 L 4.926872730255127 13.22212982177734 L 5.371322631835938 13.55160999298096 C 5.804872512817383 13.87302017211914 6.241482734680176 14.11870956420898 6.706112384796143 14.30270957946777 L 7.244152545928955 14.51578998565674 L 7.60568380355835 17 L 10.38140106201172 17 M 8.999622344970703 4.625370025634766 C 11.46516227722168 4.625370025634766 13.471022605896 6.588009834289551 13.471022605896 9.000419616699219 C 13.471022605896 11.41283988952637 11.46516227722168 13.37547969818115 8.999622344970703 13.37547969818115 C 6.534082412719727 13.37547969818115 4.528212547302246 11.41283988952637 4.528212547302246 9.000419616699219 C 4.528212547302246 6.588009834289551 6.534082412719727 4.625370025634766 8.999622344970703 4.625370025634766 M 10.85074234008789 18 L 7.148492336273193 18 C 6.91885232925415 18 6.732612609863281 17.84639930725098 6.685052394866943 17.6177806854248 L 6.337912559509277 15.23246002197266 C 5.790902614593506 15.01583003997803 5.279732704162598 14.72854042053223 4.775782585144043 14.35494041442871 L 2.473372459411621 15.25524044036865 C 2.421522617340088 15.27204036712646 2.367632627487183 15.28055000305176 2.313182592391968 15.28055000305176 C 2.139952659606934 15.28055000305176 1.987982511520386 15.19538974761963 1.906662583351135 15.05272960662842 L 0.0546625629067421 11.93671989440918 C -0.05062743648886681 11.74306964874268 -0.0006274377228692174 11.49641036987305 0.1709625571966171 11.36295986175537 L 2.126232624053955 9.87794017791748 C 2.080682516098022 9.598899841308594 2.05680251121521 9.295160293579102 2.05680251121521 9.000419616699219 C 2.05680251121521 8.741669654846191 2.083202600479126 8.454629898071289 2.137512445449829 8.122909545898438 L 0.1822425574064255 6.637889862060547 C -0.00231743766926229 6.503099918365479 -0.04978743940591812 6.267159938812256 0.06681255996227264 6.064129829406738 L 1.917942523956299 2.947269916534424 C 1.999672532081604 2.803879976272583 2.153732538223267 2.714799880981445 2.319992542266846 2.714799880981445 C 2.376482486724854 2.714799880981445 2.431872606277466 2.72487998008728 2.484652519226074 2.744760036468506 L 4.787932395935059 3.645060062408447 C 5.29290246963501 3.273689985275269 5.818792343139648 2.97842001914978 6.350062370300293 2.767539978027344 L 6.697202682495117 0.3822300136089325 C 6.732012748718262 0.1571799963712692 6.917582511901855 0 7.148492336273193 0 L 10.85074234008789 0 C 11.08502292633057 0 11.27993297576904 0.1607500016689301 11.31418228149414 0.3822300136089325 L 11.66132259368896 2.767539978027344 C 12.21073246002197 2.985960006713867 12.72189235687256 3.273230075836182 13.2234525680542 3.645060062408447 L 15.52587223052979 2.744760036468506 C 15.57771301269531 2.727960109710693 15.63160228729248 2.719449996948242 15.6860523223877 2.719449996948242 C 15.85928249359131 2.719449996948242 16.01125335693359 2.804610013961792 16.09257316589355 2.947269916534424 L 17.94457244873047 6.064129829406738 C 18.05019187927246 6.257530212402344 18.00019264221191 6.504179954528809 17.82828330993652 6.637889862060547 L 15.87301254272461 8.122909545898438 C 15.91919231414795 8.405059814453125 15.94243240356445 8.700599670410156 15.94243240356445 9.000419616699219 C 15.94243240356445 9.273269653320312 15.92342281341553 9.560310363769531 15.88429260253906 9.87794017791748 L 17.81700325012207 11.36295986175537 C 18.00154304504395 11.49773979187012 18.04902267456055 11.73367977142334 17.93242263793945 11.93671989440918 L 16.0812931060791 15.05272960662842 C 15.99957275390625 15.19610977172852 15.84551239013672 15.28518962860107 15.67924213409424 15.28520011901855 C 15.62277221679688 15.28520011901855 15.56737232208252 15.27511978149414 15.51458263397217 15.25524044036865 L 13.21130275726318 14.35494041442871 C 12.70663261413574 14.72698020935059 12.18074226379395 15.02225971221924 11.64917278289795 15.23246002197266 L 11.30203247070312 17.6177806854248 C 11.27985286712646 17.8392391204834 11.09005260467529 18 10.85074234008789 18 Z M 8.999622344970703 5.625370025634766 C 7.085472583770752 5.625370025634766 5.528212547302246 7.139410018920898 5.528212547302246 9.000419616699219 C 5.528212547302246 10.86143970489502 7.085472583770752 12.37547969818115 8.999622344970703 12.37547969818115 C 10.91376209259033 12.37547969818115 12.471022605896 10.86143970489502 12.471022605896 9.000419616699219 C 12.471022605896 7.139410018920898 10.91376209259033 5.625370025634766 8.999622344970703 5.625370025634766 Z" stroke="none" fill="#fff"/>
  </g>
</svg>
