<svg id="icon_navigation_apps_24px" data-name="icon/navigation/apps_24px" xmlns="http://www.w3.org/2000/svg" width="24" height="24" viewBox="0 0 24 24">
  <rect id="Boundary" width="24" height="24" fill="none"/>
  <g id="_Color" data-name=" ↳Color" transform="translate(4 4)" fill="#fff" stroke-miterlimit="10">
    <path d="M 15.5 15.5 L 12.49954986572266 15.5 L 12.49954986572266 12.49954986572266 L 15.5 12.49954986572266 L 15.5 15.5 Z M 9.49977970123291 15.5 L 6.500219821929932 15.5 L 6.500219821929932 12.49954986572266 L 9.49977970123291 12.49954986572266 L 9.49977970123291 15.5 Z M 3.499550104141235 15.5 L 0.5 15.5 L 0.5 12.49954986572266 L 3.499550104141235 12.49954986572266 L 3.499550104141235 15.5 Z M 15.5 9.49977970123291 L 12.49954986572266 9.49977970123291 L 12.49954986572266 6.500219821929932 L 15.5 6.500219821929932 L 15.5 9.49977970123291 Z M 9.49977970123291 9.49977970123291 L 6.500219821929932 9.49977970123291 L 6.500219821929932 6.500219821929932 L 9.49977970123291 6.500219821929932 L 9.49977970123291 9.49977970123291 Z M 3.499550104141235 9.49977970123291 L 0.5 9.49977970123291 L 0.5 6.500219821929932 L 3.499550104141235 6.500219821929932 L 3.499550104141235 9.49977970123291 Z M 15.5 3.499550104141235 L 12.49954986572266 3.499550104141235 L 12.49954986572266 0.5 L 15.5 0.5 L 15.5 3.499550104141235 Z M 9.49977970123291 3.499550104141235 L 6.500219821929932 3.499550104141235 L 6.500219821929932 0.5 L 9.49977970123291 0.5 L 9.49977970123291 3.499550104141235 Z M 3.499550104141235 3.499550104141235 L 0.5 3.499550104141235 L 0.5 0.5 L 3.499550104141235 0.5 L 3.499550104141235 3.499550104141235 Z" stroke="none"/>
    <path d="M 15 15 L 15 12.99954986572266 L 12.99954986572266 12.99954986572266 L 12.99954986572266 15 L 15 15 M 8.99977970123291 15 L 8.99977970123291 12.99954986572266 L 7.000219821929932 12.99954986572266 L 7.000219821929932 15 L 8.99977970123291 15 M 2.999550104141235 15 L 2.999550104141235 12.99954986572266 L 1 12.99954986572266 L 1 15 L 2.999550104141235 15 M 15 8.99977970123291 L 15 7.000219821929932 L 12.99954986572266 7.000219821929932 L 12.99954986572266 8.99977970123291 L 15 8.99977970123291 M 8.99977970123291 8.99977970123291 L 8.99977970123291 7.000219821929932 L 7.000219821929932 7.000219821929932 L 7.000219821929932 8.99977970123291 L 8.99977970123291 8.99977970123291 M 2.999550104141235 8.99977970123291 L 2.999550104141235 7.000219821929932 L 1 7.000219821929932 L 1 8.99977970123291 L 2.999550104141235 8.99977970123291 M 15 2.999550104141235 L 15 1 L 12.99954986572266 1 L 12.99954986572266 2.999550104141235 L 15 2.999550104141235 M 8.99977970123291 2.999550104141235 L 8.99977970123291 1 L 7.000219821929932 1 L 7.000219821929932 2.999550104141235 L 8.99977970123291 2.999550104141235 M 2.999550104141235 2.999550104141235 L 2.999550104141235 1 L 1 1 L 1 2.999550104141235 L 2.999550104141235 2.999550104141235 M 16 16 L 11.99954986572266 16 L 11.99954986572266 11.99954986572266 L 16 11.99954986572266 L 16 16 Z M 9.99977970123291 16 L 6.000219821929932 16 L 6.000219821929932 11.99954986572266 L 9.99977970123291 11.99954986572266 L 9.99977970123291 16 Z M 3.999550104141235 16 L 0 16 L 0 11.99954986572266 L 3.999550104141235 11.99954986572266 L 3.999550104141235 16 Z M 16 9.99977970123291 L 11.99954986572266 9.99977970123291 L 11.99954986572266 6.000219821929932 L 16 6.000219821929932 L 16 9.99977970123291 Z M 9.99977970123291 9.99977970123291 L 6.000219821929932 9.99977970123291 L 6.000219821929932 6.000219821929932 L 9.99977970123291 6.000219821929932 L 9.99977970123291 9.99977970123291 Z M 3.999550104141235 9.99977970123291 L 0 9.99977970123291 L 0 6.000219821929932 L 3.999550104141235 6.000219821929932 L 3.999550104141235 9.99977970123291 Z M 16 3.999550104141235 L 11.99954986572266 3.999550104141235 L 11.99954986572266 0 L 16 0 L 16 3.999550104141235 Z M 9.99977970123291 3.999550104141235 L 6.000219821929932 3.999550104141235 L 6.000219821929932 0 L 9.99977970123291 0 L 9.99977970123291 3.999550104141235 Z M 3.999550104141235 3.999550104141235 L 0 3.999550104141235 L 0 0 L 3.999550104141235 0 L 3.999550104141235 3.999550104141235 Z" stroke="none" fill="#fff"/>
  </g>
</svg>
